<svg width="1200pt" height="1200pt" version="1.1" viewBox="0 0 1200 1200" xmlns="http://www.w3.org/2000/svg">
    <path
        d="m420 144c-32.824 0-60 27.176-60 60v84h-228c-32.824 0-60 27.176-60 60v648c0 32.824 27.176 60 60 60h936c32.824 0 60-27.176 60-60v-648c0-32.824-27.176-60-60-60h-228v-84c0-32.824-27.176-60-60-60zm0 48h360c7.0625 0 12 4.9375 12 12v84h-384v-84c0-7.0625 4.9375-12 12-12zm-288 144h936c7.0625 0 12 4.9375 12 12v245.62c-45.844 13.512-93.984 25.262-144 34.875v-28.5c0-15.066-11.262-24-24-24h-96c-12.566 0-24 11.434-24 24v49.875c-62.074 6.5352-126.23 10.125-192 10.125-65.871 0-129.85-3.832-192-10.5v-49.5c0-12.566-11.434-24-24-24h-96c-13.066 0-24 13.184-24 24v28.5c-50.035-9.6211-98.176-21.375-144-34.875v-245.62c0-7.0625 4.9375-12 12-12zm180 288h48v96h-48zm528 0h48v96h-48zm-720 19.875c46.051 13.039 94.176 24.141 144 33.375v66.75c0 12.566 11.434 24 24 24h96c12.566 0 24-11.434 24-24v-46.125c62.246 6.3906 126.3 10.125 192 10.125 65.699 0 129.78-3.4297 192-9.75v45.75c0 12.566 11.434 24 24 24h96c12.566 0 24-11.434 24-24v-66.375c49.848-9.2773 97.91-20.629 144-33.75v352.12c0 7.0625-4.9375 12-12 12h-936c-7.0625 0-12-4.9375-12-12z" fiil="none"/>
</svg>